# Blender v2.79 (sub 0) OBJ File: 'plane3.blend'
# www.blender.org
o paper_airplane.001
v -0.122396 0.439365 -0.928021
v -0.231482 0.218741 -0.314675
v -0.790466 0.274868 0.595126
v 0.104962 0.417689 -0.909442
v 0.797858 0.264627 0.608349
v 0.213617 0.216487 -0.329037
v 0.001094 -0.032813 -1.645481
v 0.006695 0.793292 1.526139
v 0.159949 0.517487 1.541247
v -0.164059 0.531938 1.541247
v -0.078405 -0.006854 -0.920092
v 1.143236 0.533330 1.541247
v 0.097054 0.005417 -0.925787
v -1.128023 0.540709 1.541247
v 0.005579 -0.019801 0.095462
v -0.780996 0.255536 1.541247
v 0.799086 0.241363 1.541247
v -0.123615 0.451601 -0.935775
v -0.242659 0.209893 -0.318888
v -0.794678 0.289249 0.594529
v 0.105671 0.430624 -0.916267
v 0.801737 0.279101 0.607759
v 0.224669 0.207491 -0.333263
v 0.000070 -0.019201 -1.651094
v 0.007076 0.806633 1.519961
v 0.168952 0.529298 1.539346
v -0.172595 0.544058 1.539185
v -0.093188 -0.008351 -0.921940
v 1.133534 0.544766 1.541490
v 0.111904 0.005226 -0.927690
v -1.118500 0.552298 1.541362
v 0.005314 -0.004816 0.094918
v -0.779059 0.270408 1.541479
v 0.796887 0.256196 1.541551
vt 0.000000 0.000000
vt 0.000000 0.000000
vt 0.000000 0.000000
vt 0.000000 0.000000
vt 0.000000 0.000000
vt 0.000000 0.000000
vt 0.000000 0.000000
vt 0.000000 0.000000
vt 0.000000 0.000000
vt 0.000000 0.000000
vt 0.000000 0.000000
vt 0.000000 0.000000
vt 0.000000 0.000000
vt 0.000000 0.000000
vt 0.000000 0.000000
vt 0.000000 0.000000
vt 0.000000 0.000000
vt 0.000000 0.000000
vt 0.000000 0.000000
vt 0.000000 0.000000
vt 0.000000 0.000000
vt 0.000000 0.000000
vt 0.000000 0.000000
vt 0.000000 0.000000
vt 0.000000 0.000000
vt 0.000000 0.000000
vt 0.000000 0.000000
vt 0.000000 0.000000
vt 0.000000 0.000000
vt 0.000000 0.000000
vt 0.000000 0.000000
vt 0.000000 0.000000
vt 0.000000 0.000000
vt 0.000000 0.000000
vn -0.6349 -0.7726 -0.0094
vn 0.4088 -0.9124 -0.0227
vn 0.6468 -0.7624 -0.0199
vn -0.3965 -0.9178 -0.0224
vn -0.8498 -0.4579 0.2609
vn 0.8087 -0.5116 0.2901
vn -0.9599 -0.2802 -0.0057
vn 0.9747 -0.2234 -0.0008
vn 0.3258 -0.9445 0.0409
vn 0.6487 0.6720 0.3571
vn -0.3097 -0.9497 0.0456
vn -0.6297 0.6899 0.3570
vn -0.9912 0.0138 0.1314
vn -0.9821 0.0114 0.1878
vn 0.9895 0.0994 0.1049
vn 0.9729 0.0996 0.2089
vn 0.6389 0.7693 0.0048
vn -0.4111 0.9113 0.0249
vn -0.6507 0.7592 0.0152
vn 0.3986 0.9168 0.0246
vn 0.8398 0.4713 -0.2694
vn -0.7979 0.5242 -0.2975
vn 0.9573 0.2888 0.0082
vn -0.9739 0.2269 0.0011
vn -0.3238 0.9452 -0.0417
vn -0.7038 -0.6048 -0.3728
vn 0.3078 0.9503 -0.0461
vn 0.6913 -0.6164 -0.3770
vn 0.9880 0.0186 -0.1534
vn 0.9811 0.0196 -0.1928
vn -0.9897 -0.0692 -0.1255
vn -0.9739 -0.0709 -0.2157
vn -0.0084 -0.9994 0.0350
vn -0.9843 -0.1252 -0.1240
vn 0.5061 0.3505 0.7881
vn 0.0508 -0.9350 0.3510
vn 0.0154 -0.0182 0.9997
vn 0.6898 0.5939 -0.4141
vn -0.4952 -0.7841 0.3741
vn 0.4896 -0.7921 0.3647
vn -0.0051 -0.0057 1.0000
vn 0.8349 -0.2439 -0.4934
vn -0.9260 -0.2816 -0.2513
vn -0.0820 0.1108 0.9905
vn 0.0074 -0.0165 0.9998
vn 0.0495 0.1218 0.9913
vn -0.9658 -0.2593 0.0044
vn 0.9690 -0.2470 -0.0117
vn 0.9653 0.2613 -0.0051
vn -0.9664 0.2566 0.0146
vn 0.9909 0.0196 -0.1332
vn 0.0950 -0.9944 0.0460
vn 0.0799 0.0987 0.9919
vn 0.4661 -0.7840 0.4100
vn 0.0106 -0.0122 0.9999
vn 0.9276 -0.2596 -0.2687
vn 0.0284 -0.9479 0.3172
vn -0.8291 -0.2633 -0.4932
vn -0.0115 -0.0141 0.9998
vn -0.5048 -0.7869 0.3550
vn -0.7051 0.5834 -0.4032
vn -0.4724 0.3814 0.7945
vn -0.0549 0.1299 0.9900
vn -0.0094 -0.0219 0.9997
s off
f 16/1/1 14/2/1 3/3/1
f 16/1/2 3/3/2 10/4/2
f 17/5/3 5/6/3 12/7/3
f 17/5/4 9/8/4 5/6/4
f 8/9/5 15/10/5 9/8/5
f 10/4/6 15/10/6 8/9/6
f 1/11/7 15/10/7 10/4/7
f 4/12/8 15/10/8 7/13/8
f 10/4/9 3/3/9 1/11/9
f 2/14/10 1/11/10 3/3/10
f 9/8/11 4/12/11 5/6/11
f 6/15/12 5/6/12 4/12/12
f 7/13/13 13/16/13 4/12/13
f 13/16/14 6/15/14 4/12/14
f 7/13/15 1/11/15 11/17/15
f 11/17/16 1/11/16 2/14/16
f 33/18/17 20/19/17 31/20/17
f 33/18/18 27/21/18 20/19/18
f 34/22/19 29/23/19 22/24/19
f 34/22/20 22/24/20 26/25/20
f 25/26/21 26/25/21 32/27/21
f 27/21/22 25/26/22 32/27/22
f 32/27/23 18/28/23 27/21/23
f 32/27/24 21/29/24 24/30/24
f 27/21/25 18/28/25 20/19/25
f 19/31/26 20/19/26 18/28/26
f 26/25/27 22/24/27 21/29/27
f 23/32/28 21/29/28 22/24/28
f 24/30/29 21/29/29 30/33/29
f 30/33/30 21/29/30 23/32/30
f 24/30/31 28/34/31 18/28/31
f 28/34/32 19/31/32 18/28/32
f 13/16/33 24/30/33 30/33/33
f 7/13/34 28/34/34 24/30/34
f 8/9/35 26/25/35 25/26/35
f 11/17/36 19/31/36 28/34/36
f 12/7/37 34/22/37 17/5/37
f 12/7/38 22/24/38 29/23/38
f 13/16/39 23/32/39 6/15/39
f 2/14/40 20/19/40 19/31/40
f 14/2/41 33/18/41 31/20/41
f 5/6/42 23/32/42 22/24/42
f 14/2/43 20/19/43 3/3/43
f 8/9/44 27/21/44 10/4/44
f 10/4/45 33/18/45 16/1/45
f 9/8/46 34/22/46 26/25/46
f 1/11/47 7/13/47 15/10/47
f 4/12/48 9/8/48 15/10/48
f 32/27/49 24/30/49 18/28/49
f 32/27/50 26/25/50 21/29/50
f 13/16/51 7/13/51 24/30/51
f 7/13/52 11/17/52 28/34/52
f 8/9/53 9/8/53 26/25/53
f 11/17/54 2/14/54 19/31/54
f 12/7/55 29/23/55 34/22/55
f 12/7/56 5/6/56 22/24/56
f 13/16/57 30/33/57 23/32/57
f 2/14/58 3/3/58 20/19/58
f 14/2/59 16/1/59 33/18/59
f 5/6/60 6/15/60 23/32/60
f 14/2/61 31/20/61 20/19/61
f 8/9/62 25/26/62 27/21/62
f 10/4/63 27/21/63 33/18/63
f 9/8/64 17/5/64 34/22/64
m1 0.3 0.0 0.0 1, 1.0 0.0 0.0 1, 0.99 0.99 0.81 1, 10
m2 0.3 0.1 0.1 1, 0.4 0.2 0.2 1, 0.99 0.99 0.81 1, 10
